<svg
   version="1.1"
   width="200"
   height="200"
   viewBox="0 0 200 200"
   id="svg1"
   xmlns="http://www.w3.org/2000/svg"
   xmlns:svg="http://www.w3.org/2000/svg">
  <defs
     id="defs1" />
  <path
     id="path1"
     style="fill:#ffffff;stroke:#000000;stroke-width:27.2126;stroke-dasharray:none"
     d="m 271.57812,196.18552 h 61.94141 v 62.70312 H 66.480469 v -62.70312 c 23.316406,-0.0105 38.632851,0.024 61.949221,-0.0195 7.53622,-31.38854 37.6664,-55.36382 69.97461,-55.54688 33.53556,-1.19456 65.31626,22.92428 73.17382,55.56638 z" />
  <path
     id="rect377"
     style="fill:none;stroke:#000000;stroke-width:27.21259843;stroke-dasharray:none"
     d="m 375.83482,62.596799 c 0.88141,90.886061 0.14242,181.846351 0.38772,272.760991 3.26565,21.42646 -11.31709,44.37662 -33.52878,46.95633 C 252.1641,383.20306 161.559,382.45796 71.000295,382.70503 49.597497,385.95021 26.728332,371.31312 24.165271,349.15165 23.280395,258.23259 24.024052,167.23859 23.777461,76.290674 20.500655,54.787612 35.301151,31.818488 57.587137,29.392344 150.34479,28.585894 243.1668,29.272204 335.94922,29.041016 c 19.46115,-0.891128 37.41765,14.296635 39.8856,33.555783 z" />
</svg>
