<?xml version="1.0" encoding="UTF-8" standalone="no"?>
<svg
   version="1.2"
   width="113.23215"
   height="113.51263"
   viewBox="0 0 113.23215 113.51263"
   id="svg1"
   xmlns="http://www.w3.org/2000/svg"
   xmlns:svg="http://www.w3.org/2000/svg">
  <defs
     id="defs1" />
  <path
     id="path1"
     style="fill:#ffffff;stroke:#000000;stroke-width:7;stroke-dasharray:none"
     d="m 78.133304,53.781587 h 18.620612 v 18.85667 H 16.477562 v -18.85667 c 7.009297,-0.003 11.613673,0.007 18.622959,-0.006 2.265513,-9.43945 11.323143,-16.64952 21.035524,-16.70457 10.081344,-0.35924 19.635147,6.894 21.997259,16.71043 z" />
  <path
     id="rect377"
     style="fill:none;stroke:#000000;stroke-width:7;stroke-dasharray:none"
     d="m 109.47459,13.607547 c 0.26497,27.3321 0.0428,54.68653 0.11656,82.02722 0.98171,6.443573 -3.4021,13.345353 -10.079314,14.121153 -27.214707,0.26733 -54.452097,0.0433 -81.675539,0.11756 C 11.402262,110.8494 4.5274133,106.44759 3.7569153,99.782987 3.4909063,72.440967 3.7144653,45.076397 3.6403333,17.725697 2.6552713,11.259097 7.1045443,4.3516075 13.80408,3.6219975 c 27.884483,-0.24252 55.788312,-0.0361 83.680236,-0.10566 5.850354,-0.26798 11.248374,4.29942 11.990274,10.0912095 z" />


</svg>
