<?xml version="1.0" encoding="UTF-8" standalone="no"?>

<svg
   width="18.140762mm"
   height="14.64886mm"
   viewBox="0 0 18.140762 14.64886"
   version="1.1"
   id="svg482"
   xmlns="http://www.w3.org/2000/svg"
   xmlns:svg="http://www.w3.org/2000/svg">
  <defs
     id="defs479" />
  <g
     id="layer1"
     transform="translate(-20.72623,-142.96257)">
    <path
       d="m 38.866993,157.61143 -9.518732,-14.64886 -8.622031,14.62682 m 7.272648,-0.71401 c -0.131085,-0.023 -0.305323,-0.20904 -0.351096,-0.37482 -0.0552,-0.19991 -0.01724,-0.32771 0.268914,-0.90544 0.387331,-0.78201 0.760683,-1.57142 0.760683,-1.60834 0,-0.0313 -0.144442,-0.21429 -0.899075,-1.13887 l -0.23089,-0.28288 -0.02141,0.76168 c -0.01496,0.53212 -0.04,0.82519 -0.08308,0.97235 -0.03392,0.11587 -0.168599,0.63298 -0.299294,1.14913 -0.280386,1.10733 -0.276383,1.09561 -0.427167,1.25197 -0.206402,0.214 -0.547941,0.21569 -0.755165,0.004 -0.203512,-0.20816 -0.196463,-0.30818 0.107933,-1.53159 l 0.271621,-1.09167 v -1.21477 c 0,-0.81821 0.01396,-1.24209 0.04273,-1.29844 0.0235,-0.046 0.119762,-0.1633 0.21391,-0.26063 l 0.171177,-0.17697 -0.09744,-0.0974 c -0.05359,-0.0536 -0.108125,-0.14002 -0.121186,-0.19206 -0.01335,-0.0532 -0.131423,-0.1809 -0.26969,-0.2917 -0.201769,-0.16169 -0.245939,-0.21728 -0.245939,-0.30952 0,-0.072 0.02667,-0.12672 0.07409,-0.1521 0.108827,-0.0582 0.127794,-0.0526 0.323003,0.0965 0.121754,0.093 0.183124,0.1203 0.193548,0.0862 0.0084,-0.0275 0.08599,-0.36822 0.172444,-0.75724 0.168596,-0.75861 0.263893,-0.97188 0.45877,-1.0267 0.0548,-0.0154 0.63738,-0.0278 1.294641,-0.0275 1.147132,5.8e-4 1.199302,0.004 1.30234,0.0797 0.133038,0.0981 0.966223,1.26205 1.105037,1.54366 0.183185,0.37172 0.188031,0.35633 -0.508258,1.61268 -0.266283,0.48045 -0.474052,0.86338 -0.555946,1.02449 -0.07549,0.14853 -0.07727,0.16678 -0.0206,0.21067 0.03413,0.0264 0.488455,0.39277 1.009582,0.81411 0.521128,0.42135 1.077458,0.86974 1.236266,0.99644 l 0.288725,0.23034 0.147402,-0.1599 c 0.299776,-0.32522 0.785771,-0.43184 1.139817,-0.25004 0.181423,0.0931 0.429197,0.33725 0.521126,0.51342 0.05022,0.0962 0.06789,0.1027 0.222415,0.0815 0.321417,-0.0441 0.598655,0.2031 0.673921,0.60081 0.02176,0.11497 0.06079,0.21613 0.08671,0.22478 0.02592,0.009 0.104876,0.0733 0.175452,0.14364 0.07057,0.0703 0.15676,0.12801 0.191521,0.12813 0.136359,4.3e-4 0.35383,0.0842 0.46777,0.18003 0.116804,0.0983 0.323195,0.38794 0.295875,0.41529 -0.07105,0.071 -6.503659,0.0455 -6.503659,-0.0259 0,-0.0185 0.08188,-0.11812 0.181945,-0.22132 0.188893,-0.19481 0.455436,-0.31005 0.717207,-0.31005 0.108791,0 0.123163,-0.015 0.16506,-0.17159 0.04859,-0.18167 0.219938,-0.33228 0.438545,-0.38549 0.05843,-0.0143 0.137629,-0.0787 0.179263,-0.14597 0.0932,-0.15058 0.256855,-0.3049 0.401236,-0.37834 l 0.110595,-0.0562 -1.068188,-0.85426 c -0.587509,-0.46984 -1.126026,-0.90444 -1.196698,-0.96573 -0.177995,-0.15434 -0.198499,-0.10251 -0.03224,0.0815 0.30428,0.3368 0.30872,0.49534 0.02957,1.0565 -0.474933,0.95473 -1.119553,2.14848 -1.20095,2.22397 -0.158433,0.14691 -0.362886,0.21351 -0.552957,0.18013 z m 1.321761,-5.23847 c 0.08416,-0.14748 0.148482,-0.27306 0.142943,-0.27907 -0.01242,-0.0135 -0.94638,0.37795 -0.990047,0.41495 -0.01732,0.0147 0.09285,0.12329 0.244809,0.24136 l 0.276295,0.21468 0.08649,-0.16189 c 0.04757,-0.089 0.155346,-0.28256 0.239503,-0.43005 z m -1.332716,-1.68539 0.400814,-0.40219 h -0.325248 -0.325248 l -0.0697,0.31601 c -0.03834,0.1738 -0.07883,0.35479 -0.08999,0.4022 -0.01116,0.0474 -0.0138,0.0862 -0.0059,0.0862 0.0079,0 0.194784,-0.18099 0.415255,-0.4022 z m 3.138143,-0.1715 c -0.525878,-0.278 -0.652051,-0.95982 -0.254113,-1.37301 0.428431,-0.44483 1.154946,-0.32187 1.421886,0.24062 0.07727,0.16282 0.07822,0.51726 0.0019,0.70184 -0.06893,0.16667 -0.287135,0.37984 -0.46482,0.45407 -0.180953,0.0756 -0.539973,0.0636 -0.704835,-0.0235 z"
       style="fill:#000000;stroke-width:0.264584"
       id="path477" />
  </g>

    <animate
      attributeName="width"
      begin="0s"
      dur="8s"
      from="18.140762mm"
      to="5"
      repeatCount="indefinite" />
</svg>
